<svg viewBox="0 0 200 200" xmlns="http://www.w3.org/2000/svg">
  <!-- Animated gradient background -->
  <defs>
    <linearGradient id="grad1" x1="0%" y1="0%" x2="100%" y2="100%">
      <stop offset="0%" style="stop-color:#0ea5e9">
        <animate attributeName="stop-color" 
          values="#0ea5e9; #06b6d4; #0ea5e9"
          dur="4s" repeatCount="indefinite"/>
      </stop>
      <stop offset="100%" style="stop-color:#06b6d4">
        <animate attributeName="stop-color"
          values="#06b6d4; #0ea5e9; #06b6d4"
          dur="4s" repeatCount="indefinite"/>
      </stop>
    </linearGradient>
    
    <!-- Filter for glow effect -->
    <filter id="glow">
      <feGaussianBlur stdDeviation="2" result="coloredBlur"/>
      <feMerge>
        <feMergeNode in="coloredBlur"/>
        <feMergeNode in="SourceGraphic"/>
      </feMerge>
    </filter>
  </defs>

  <!-- Background Circle with subtle pulse -->
  <circle cx="100" cy="100" r="95" fill="url(#grad1)">
    <animate attributeName="r" 
      values="95;93;95" 
      dur="2s"
      repeatCount="indefinite"/>
  </circle>

  <!-- Animated Growing Tree -->
  <path d="M95 140 L105 140 L103 90 L97 90 Z" 
    fill="#ffffff" 
    opacity="0.9"
    filter="url(#glow)"/>
  
  <path d="M80 90 C90 80, 100 60, 100 50 C100 60, 110 80, 120 90 C110 85, 90 85, 80 90"
    fill="#4ade80" 
    opacity="0.9"
    filter="url(#glow)">
    <animate attributeName="d"
      values="M80 90 C90 80, 100 60, 100 50 C100 60, 110 80, 120 90 C110 85, 90 85, 80 90;
              M80 88 C90 78, 100 58, 100 48 C100 58, 110 78, 120 88 C110 83, 90 83, 80 88;
              M80 90 C90 80, 100 60, 100 50 C100 60, 110 80, 120 90 C110 85, 90 85, 80 90"
      dur="2s"
      repeatCount="indefinite"/>
  </path>

  <path d="M75 100 C88 88, 100 70, 100 60 C100 70, 112 88, 125 100 C110 95, 90 95, 75 100"
    fill="#4ade80" 
    opacity="0.9"
    filter="url(#glow)">
    <animate attributeName="d"
      values="M75 100 C88 88, 100 70, 100 60 C100 70, 112 88, 125 100 C110 95, 90 95, 75 100;
              M75 98 C88 86, 100 68, 100 58 C100 68, 112 86, 125 98 C110 93, 90 93, 75 98;
              M75 100 C88 88, 100 70, 100 60 C100 70, 112 88, 125 100 C110 95, 90 95, 75 100"
      dur="2s"
      repeatCount="indefinite"/>
  </path>

  <!-- Animated Brain/Mind Icon -->
  <path d="M140 80 C150 90, 150 110, 140 120 C130 130, 110 130, 100 120 C90 130, 70 130, 60 120 C50 110, 50 90, 60 80 C70 70, 90 70, 100 80 C110 70, 130 70, 140 80"
    fill="none"
    stroke="#ffffff"
    stroke-width="3"
    opacity="0.9"
    filter="url(#glow)">
    <animate attributeName="stroke-width"
      values="3;4;3"
      dur="1.5s"
      repeatCount="indefinite"/>
  </path>

  <!-- Animated Stars/Sparkles -->
  <path d="M60 60 L65 65 L60 70 L55 65 Z" fill="#fde047" filter="url(#glow)">
    <animate attributeName="opacity"
      values="1;0.5;1"
      dur="1s"
      repeatCount="indefinite"/>
  </path>
  <path d="M140 60 L145 65 L140 70 L135 65 Z" fill="#fde047" filter="url(#glow)">
    <animate attributeName="opacity"
      values="0.5;1;0.5"
      dur="1s"
      repeatCount="indefinite"/>
  </path>
  <path d="M100 30 L105 35 L100 40 L95 35 Z" fill="#fde047" filter="url(#glow)">
    <animate attributeName="opacity"
      values="1;0.5;1"
      dur="1s"
      repeatCount="indefinite"/>
  </path>

  <!-- Animated Progress Steps -->
  <circle cx="70" cy="110" r="5" fill="#ffffff" opacity="0.9" filter="url(#glow)">
    <animate attributeName="r"
      values="5;6;5"
      dur="1s"
      repeatCount="indefinite"/>
  </circle>
  <circle cx="100" cy="110" r="5" fill="#ffffff" opacity="0.9" filter="url(#glow)">
    <animate attributeName="r"
      values="5;6;5"
      dur="1s"
      repeatCount="indefinite"
      begin="0.3s"/>
  </circle>
  <circle cx="130" cy="110" r="5" fill="#ffffff" opacity="0.9" filter="url(#glow)">
    <animate attributeName="r"
      values="5;6;5"
      dur="1s"
      repeatCount="indefinite"
      begin="0.6s"/>
  </circle>
  
  <path d="M75 110 L95 110" stroke="#ffffff" stroke-width="2" opacity="0.9"/>
  <path d="M105 110 L125 110" stroke="#ffffff" stroke-width="2" opacity="0.9"/>

  <!-- Text Path Circle -->
  <path id="textPath"
    d="M40,100 A60,60 0 1,1 160,100 A60,60 0 1,1 40,100"
    fill="none"/>

  <!-- Stylized Text -->
  <text>
    <textPath href="#textPath" startOffset="50%" text-anchor="middle"
      fill="#ffffff" 
      font-family="Arial" 
      font-weight="bold"
      font-size="14"
      letter-spacing="1">
      PERSONAL DEVELOPMENT
    </textPath>
  </text>
</svg>