<svg width="66" height="65" viewBox="0 0 66 65" fill="none" xmlns="http://www.w3.org/2000/svg">
  <rect width="66" height="65" rx="10" fill="#F6F8FF"/>
  
  <!-- Mentor figure -->
  <path d="M33 20c2.2 0 4-1.8 4-4s-1.8-4-4-4-4 1.8-4 4 1.8 4 4 4z" fill="#F7DECE"/>
  
  <!-- Body -->
  <path d="M33 25c-3.3 0-6 2.7-6 6v4c0 3.3 2.7 6 6 6s6-2.7 6-6v-4c0-3.3-2.7-6-6-6z" fill="#577CFF"/>
  
  <!-- Teaching elements: book/knowledge -->
  <path d="M22 37l11-7 11 7-11 7z" fill="#F7DECE"/>
  
  <!-- Subtle open book/learning symbol -->
  <path d="M22 37v6l11 7 11-7v-6L33 44l-11-7z" stroke="#577CFF" stroke-width="2" stroke-linecap="round" stroke-linejoin="round"/>
  
  <!-- Bottom guidance line -->
  <path d="M27 52h12c1.1 0 2-.9 2-2s-.9-2-2-2H27c-1.1 0-2 .9-2 2s.9 2 2 2z" fill="#577CFF" opacity="0.6"/>
</svg>